<svg xmlns="http://www.w3.org/2000/svg" viewBox="0 0 512 512">
  <rect width="512" height="512" rx="112" fill="#1c1917"/>
  <g transform="translate(96, 112)">
    <rect x="0" y="0" width="320" height="288" rx="32" fill="#fafaf9"/>
    <rect x="0" y="0" width="320" height="64" rx="32" fill="#1c1917"/>
    <rect x="0" y="32" width="320" height="32" fill="#1c1917"/>
    <circle cx="64" cy="32" r="12" fill="#fafaf9"/>
    <circle cx="256" cy="32" r="12" fill="#fafaf9"/>
    <g transform="translate(32, 96)">
      <rect x="0" y="0" width="48" height="48" rx="8" fill="#3b82f6"/>
      <rect x="64" y="0" width="48" height="48" rx="8" fill="#ec4899"/>
      <rect x="128" y="0" width="48" height="48" rx="8" fill="#10b981"/>
      <rect x="192" y="0" width="48" height="48" rx="8" fill="#f5f5f4"/>
      <rect x="0" y="64" width="48" height="48" rx="8" fill="#a855f7"/>
      <rect x="64" y="64" width="48" height="48" rx="8" fill="#10b981"/>
      <rect x="128" y="64" width="48" height="48" rx="8" fill="#f5f5f4"/>
      <rect x="192" y="64" width="48" height="48" rx="8" fill="#ef4444"/>
      <rect x="0" y="128" width="48" height="48" rx="8" fill="#f5f5f4"/>
      <rect x="64" y="128" width="48" height="48" rx="8" fill="#0891b2"/>
      <rect x="128" y="128" width="48" height="48" rx="8" fill="#3b82f6"/>
      <rect x="192" y="128" width="48" height="48" rx="8" fill="#f59e0b"/>
    </g>
  </g>
</svg>
